<?xml version="1.0" encoding="utf-8"?>
<!-- Generator: Adobe Illustrator 24.0.1, SVG Export Plug-In . SVG Version: 6.00 Build 0)  -->
<svg version="1.1" id="Layer_1" xmlns="http://www.w3.org/2000/svg" xmlns:xlink="http://www.w3.org/1999/xlink" x="0px" y="0px"
	 viewBox="0 0 512 512" style="enable-background:new 0 0 512 512;" xml:space="preserve">
<style type="text/css">
	.st0{fill-rule:evenodd;clip-rule:evenodd;fill:#FFFFFF;}
</style>
<path class="st0" d="M0,256c0,141.4,114.6,256,256,256c141.4,0,256-114.6,256-256S397.4,0,256,0C114.6,0,0,114.6,0,256z M472,256
	c0,119.3-96.7,216-216,216c-119.3,0-216-96.7-216-216S136.7,40,256,40C375.3,40,472,136.7,472,256z"/>
<polygon class="st0" points="144,226 256,338 368,226 336,194 256,274 176,194 "/>
</svg>
